<?xml version="1.0" encoding="UTF-8"?>
<!-- Generator: Adobe Illustrator 25.4.1, SVG Export Plug-In . SVG Version: 6.00 Build 0)  -->
<svg xmlns="http://www.w3.org/2000/svg" xmlns:xlink="http://www.w3.org/1999/xlink" version="1.1" id="Layer_1" x="0px" y="0px" viewBox="0 0 575 575" style="enable-background:new 0 0 575 575;" xml:space="preserve">
<style type="text/css">
	.st0{fill:#500000;stroke:#000000;stroke-miterlimit:10;}
	.st1{fill:#500000;}
	.st2{fill:#FFFFFF;}
</style>
<path class="st0" d="M-14-23h604v620H-14V-23z"></path>
<path class="st1" d="M33,33h512v512H33V33z"></path>
<g>
	<path class="st2" d="M465.1,469.7c13.8,35.2,24.2,42.3,46.1,48.8c9.1,2.6,18.9,2.6,23.7,2.7c5.5,0,7.3,2,7.3,5.8   c0,5.1-6.7,5.7-15.9,5.7c-32.3-0.1-67-2.2-88.3-2.3c-15.2-0.1-44.5,1.7-74.9,1.6c-7.3,0-14-1.3-14-5.8s3.7-5.7,9.2-5.7   c9.7,0,18.9-0.6,23.8-4.4c4.3-3.2,6.1-7.6,6.1-13.4c0-8.3-5.4-26.2-13.8-49.3L271.1,162.8h-2.4C242.2,233,162.1,438.3,147.3,480.4   c-3.1,8.3-5.6,17.9-5.6,23.6c0,5.1,2.4,10.2,7.9,12.2c7.3,2.6,16.4,3.3,24.3,3.3c5.5,0,10.4,0.7,10.3,5.2c0,5.1-5.5,6.4-17.1,6.3   c-30.4-0.1-56-2.2-63.9-2.2c-10.4,0-39,1.7-57.2,1.7c-7.9,0-12.8-1.3-12.8-5.8s3.7-5.7,9.8-5.7s18.9,0.1,29.9-7.5   c7.9-5.7,17.1-16.5,33.7-57.3c24-59.9,40.6-94.4,73.9-172.8c39.4-93.1,68.3-162.6,81.9-194.5c16-37,19.7-47.2,28.2-47.1   c7.9,0,11.5,9,23,39.1L465.1,469.7z"></path>
	<path class="st2" d="M178.8,384.9C275.1,244.6,405.5,147.6,560,265.4c0,0-194.6-118-396.5,170.9"></path>
</g>
</svg>
